<svg width="32" height="32" viewBox="0 0 32 32" fill="none" xmlns="http://www.w3.org/2000/svg">
<circle cx="16" cy="16" r="16" fill="#8E852E"/>
<path d="M16.0008 18.4001C17.3263 18.4001 18.4008 17.3256 18.4008 16.0001C18.4008 14.6746 17.3263 13.6001 16.0008 13.6001C14.6753 13.6001 13.6008 14.6746 13.6008 16.0001C13.6008 17.3256 14.6753 18.4001 16.0008 18.4001Z" fill="white"/>
<path d="M24.8072 15.3475C23.815 13.813 22.5276 12.5095 21.0846 11.5776C19.4882 10.5456 17.7257 10 15.988 10C14.3935 10 12.8256 10.4556 11.3279 11.3541C9.8005 12.2703 8.41675 13.6086 7.21487 15.3317C7.07919 15.5265 7.00447 15.7572 7.00019 15.9945C6.99592 16.2318 7.06229 16.465 7.19087 16.6645C8.18125 18.2144 9.45587 19.5198 10.8764 20.4389C12.4757 21.475 14.197 22 15.988 22C17.7396 22 19.5059 21.4589 21.0955 20.4355C22.5377 19.5066 23.8225 18.1982 24.811 16.651C24.9352 16.4561 25.0008 16.2297 25.0001 15.9987C24.9995 15.7677 24.9325 15.5416 24.8072 15.3475ZM16.0007 19.6C15.2887 19.6 14.5927 19.3889 14.0007 18.9933C13.4087 18.5977 12.9473 18.0355 12.6748 17.3777C12.4023 16.7198 12.331 15.996 12.4699 15.2977C12.6088 14.5993 12.9517 13.9579 13.4552 13.4544C13.9586 12.9509 14.6001 12.6081 15.2984 12.4692C15.9968 12.3303 16.7206 12.4016 17.3784 12.674C18.0362 12.9465 18.5985 13.4079 18.994 13.9999C19.3896 14.592 19.6007 15.288 19.6007 16C19.5997 16.9544 19.22 17.8695 18.5451 18.5444C17.8702 19.2193 16.9552 19.5989 16.0007 19.6Z" fill="white"/>
</svg>
