<svg width="70" height="71" viewBox="0 0 70 71" fill="none" xmlns="http://www.w3.org/2000/svg">
<path d="M28.4252 37.8177L28.4032 37.8315L28.3828 37.8474C28.0721 38.0899 27.4127 38.4256 26.5152 38.7814C25.6335 39.1309 24.5679 39.4822 23.481 39.7678C22.3925 40.0538 21.2958 40.2705 20.3495 40.3563C19.5233 40.4312 18.8751 40.3996 18.4498 40.273C17.947 38.502 17.449 36.754 16.9068 35.011C16.9043 34.93 16.9044 34.8968 16.9058 34.8791C16.908 34.8758 16.911 34.8716 16.9149 34.8663C16.9522 34.8159 17.0171 34.7448 17.1588 34.5936L17.1764 34.5747C17.3061 34.4364 17.4791 34.2518 17.7048 33.9978C19.0842 32.6516 21.6726 30.8882 23.7767 30.1379C27.7035 28.7389 30.3283 29.018 31.708 30.3936C32.3803 31.2507 32.6558 32.0112 32.6897 32.6816C32.724 33.3578 32.5155 33.9972 32.1264 34.6115C31.3325 35.8651 29.8426 36.9307 28.4252 37.8177ZM23.5754 13.9435L23.5995 13.9338L23.6224 13.9216C25.0991 13.1374 26.7669 12.38 28.2495 12.3192C28.9762 12.2894 29.6343 12.4286 30.2028 12.7963C30.7666 13.161 31.2876 13.7798 31.6939 14.7906C32.196 16.6733 31.1242 19.0859 27.9494 21.7871C26.2483 23.2337 23.4271 24.5935 21.5709 25.1154C21.2365 25.1841 20.9893 25.2418 20.8043 25.285L20.7818 25.2902C20.5799 25.3373 20.4858 25.358 20.4233 25.3652C20.4167 25.3659 20.4116 25.3664 20.4076 25.3667C20.3917 25.3591 20.363 25.3427 20.2946 25.3004C19.0554 23.9591 17.7913 22.6537 16.5089 21.3326C16.6118 20.9011 16.9084 20.3241 17.3863 19.646C17.9337 18.8694 18.6696 18.028 19.4615 17.2284C20.2522 16.4299 21.0893 15.6827 21.8328 15.094C22.5897 14.4946 23.2101 14.0913 23.5754 13.9435ZM9.98525 36.8851C10.9438 36.1392 12.5011 35.6017 14.7441 35.6974C14.9477 36.6829 15.1785 37.6147 15.4309 38.6332C15.5915 39.2815 15.7608 39.965 15.9373 40.7198C13.6661 41.7336 11.9379 41.8534 10.7627 41.5371C9.53953 41.2079 8.8943 40.4087 8.75503 39.5557C8.61419 38.6931 8.97438 37.6717 9.98525 36.8851ZM16.4147 24.7634C17.172 25.4927 17.8644 26.1595 18.6177 26.8295C17.579 28.8198 16.3349 29.8998 15.2097 30.357C14.023 30.8391 12.9582 30.6403 12.2816 30.0871C11.6124 29.54 11.2429 28.5816 11.5695 27.3577C11.8832 26.1818 12.851 24.745 14.8648 23.2849C15.4288 23.814 15.9348 24.3012 16.4147 24.7634Z" stroke="white"/>
<path d="M13.9 57.46C13.96 57.46 14.0117 57.4833 14.055 57.53L14.475 57.99C14.1817 58.3367 13.8233 58.605 13.4 58.795C12.98 58.985 12.4733 59.08 11.88 59.08C11.36 59.08 10.8883 58.99 10.465 58.81C10.045 58.63 9.685 58.3783 9.385 58.055C9.08833 57.7317 8.85833 57.345 8.695 56.895C8.53167 56.445 8.45 55.95 8.45 55.41C8.45 54.87 8.535 54.375 8.705 53.925C8.87833 53.475 9.12 53.0883 9.43 52.765C9.74 52.4417 10.11 52.19 10.54 52.01C10.9733 51.83 11.4517 51.74 11.975 51.74C12.485 51.74 12.9383 51.8233 13.335 51.99C13.7317 52.1567 14.0767 52.3783 14.37 52.655L14.02 53.15C13.9967 53.1867 13.9667 53.2167 13.93 53.24C13.8967 53.2633 13.8517 53.275 13.795 53.275C13.7317 53.275 13.6567 53.2433 13.57 53.18C13.4867 53.1167 13.375 53.0467 13.235 52.97C13.0983 52.89 12.9283 52.8183 12.725 52.755C12.5217 52.6917 12.2683 52.66 11.965 52.66C11.6083 52.66 11.2817 52.7233 10.985 52.85C10.6883 52.9733 10.4317 53.1533 10.215 53.39C10.0017 53.6233 9.835 53.9117 9.715 54.255C9.59833 54.595 9.54 54.98 9.54 55.41C9.54 55.8467 9.60167 56.235 9.725 56.575C9.84833 56.915 10.0183 57.2033 10.235 57.44C10.4517 57.6767 10.7067 57.8567 11 57.98C11.2933 58.1033 11.61 58.165 11.95 58.165C12.1567 58.165 12.3417 58.1533 12.505 58.13C12.6717 58.1033 12.8233 58.065 12.96 58.015C13.1 57.965 13.2317 57.9017 13.355 57.825C13.4783 57.745 13.6 57.65 13.72 57.54C13.7467 57.5167 13.775 57.4983 13.805 57.485C13.835 57.4683 13.8667 57.46 13.9 57.46ZM20.3602 59H19.3852V54.685H17.8702C17.8302 55.325 17.7702 55.8783 17.6902 56.345C17.6102 56.8083 17.5135 57.2033 17.4002 57.53C17.2868 57.8533 17.1602 58.1167 17.0202 58.32C16.8835 58.52 16.7368 58.6767 16.5802 58.79C16.4268 58.9 16.2685 58.9733 16.1052 59.01C15.9418 59.05 15.7785 59.07 15.6152 59.07C15.3118 59.07 15.1602 59.02 15.1602 58.92V58.305H15.4302C15.5435 58.305 15.6568 58.2867 15.7702 58.25C15.8868 58.21 16.0002 58.135 16.1102 58.025C16.2235 57.9117 16.3302 57.755 16.4302 57.555C16.5302 57.355 16.6218 57.0933 16.7052 56.77C16.7885 56.4433 16.8602 56.0467 16.9202 55.58C16.9802 55.1133 17.0268 54.56 17.0602 53.92H20.3602V59ZM25.5988 55.895C25.5988 55.7017 25.5705 55.5233 25.5138 55.36C25.4605 55.1967 25.3805 55.055 25.2738 54.935C25.1672 54.815 25.0372 54.7217 24.8838 54.655C24.7305 54.5883 24.5538 54.555 24.3538 54.555C23.9438 54.555 23.6205 54.6733 23.3838 54.91C23.1505 55.1467 23.0022 55.475 22.9388 55.895H25.5988ZM26.4038 58.275C26.2838 58.415 26.1455 58.5367 25.9888 58.64C25.8322 58.74 25.6655 58.8217 25.4888 58.885C25.3122 58.9483 25.1288 58.995 24.9388 59.025C24.7522 59.055 24.5672 59.07 24.3838 59.07C24.0338 59.07 23.7088 59.0117 23.4088 58.895C23.1122 58.775 22.8538 58.6017 22.6338 58.375C22.4172 58.145 22.2472 57.8617 22.1238 57.525C22.0038 57.185 21.9438 56.795 21.9438 56.355C21.9438 56.0017 21.9988 55.6733 22.1088 55.37C22.2188 55.0633 22.3755 54.7967 22.5788 54.57C22.7855 54.3433 23.0372 54.165 23.3338 54.035C23.6305 53.905 23.9638 53.84 24.3338 53.84C24.6438 53.84 24.9288 53.8917 25.1888 53.995C25.4522 54.095 25.6788 54.2417 25.8688 54.435C26.0588 54.6283 26.2072 54.8667 26.3138 55.15C26.4238 55.4333 26.4788 55.7567 26.4788 56.12C26.4788 56.27 26.4622 56.3717 26.4288 56.425C26.3955 56.475 26.3338 56.5 26.2438 56.5H22.9138C22.9238 56.8033 22.9672 57.0683 23.0438 57.295C23.1205 57.5183 23.2255 57.705 23.3588 57.855C23.4955 58.005 23.6572 58.1167 23.8438 58.19C24.0305 58.2633 24.2388 58.3 24.4688 58.3C24.6855 58.3 24.8722 58.275 25.0288 58.225C25.1888 58.175 25.3255 58.1217 25.4388 58.065C25.5555 58.005 25.6522 57.95 25.7288 57.9C25.8088 57.85 25.8788 57.825 25.9388 57.825C26.0188 57.825 26.0805 57.855 26.1238 57.915L26.4038 58.275ZM31.4577 58.29V54.685H29.9377C29.9044 55.1783 29.8594 55.6183 29.8027 56.005C29.7461 56.3917 29.6794 56.7317 29.6027 57.025C29.5294 57.315 29.4477 57.565 29.3577 57.775C29.2677 57.9817 29.1727 58.1533 29.0727 58.29H31.4577ZM33.3327 58.26V60.435C33.3327 60.5283 33.3061 60.6017 33.2527 60.655C33.2027 60.7083 33.1361 60.735 33.0527 60.735H32.4477V59H28.2977V60.455C28.2977 60.5283 28.2761 60.5933 28.2327 60.65C28.1894 60.7067 28.1211 60.735 28.0277 60.735H27.4077V58.29H27.5727C27.6894 58.29 27.8044 58.2717 27.9177 58.235C28.0311 58.1983 28.1394 58.125 28.2427 58.015C28.3494 57.905 28.4494 57.75 28.5427 57.55C28.6361 57.35 28.7211 57.0883 28.7977 56.765C28.8744 56.4417 28.9411 56.0483 28.9977 55.585C29.0544 55.1183 29.0994 54.5633 29.1327 53.92H32.4027V58.26H33.3327ZM38.9043 53.92L36.0843 60.475C36.0543 60.5483 36.0143 60.605 35.9643 60.645C35.9143 60.685 35.841 60.705 35.7443 60.705H35.0193L35.9493 58.68L33.8643 53.92H34.7143C34.7976 53.92 34.8626 53.94 34.9093 53.98C34.956 54.02 34.9893 54.065 35.0093 54.115L36.2993 57.165C36.326 57.2417 36.351 57.32 36.3743 57.4C36.401 57.4767 36.4226 57.5533 36.4393 57.63C36.4626 57.55 36.4876 57.4717 36.5143 57.395C36.541 57.315 36.5693 57.2367 36.5993 57.16L37.8443 54.115C37.8676 54.0583 37.9043 54.0117 37.9543 53.975C38.0043 53.9383 38.061 53.92 38.1243 53.92H38.9043ZM44.5948 58.31C45.0482 58.31 45.3832 58.1483 45.5998 57.825C45.8198 57.5017 45.9298 57.0467 45.9298 56.46C45.9298 55.8733 45.8198 55.4183 45.5998 55.095C45.3832 54.7683 45.0482 54.605 44.5948 54.605C44.1448 54.605 43.8098 54.7683 43.5898 55.095C43.3732 55.4183 43.2648 55.8733 43.2648 56.46C43.2648 57.0467 43.3732 57.5017 43.5898 57.825C43.8098 58.1483 44.1448 58.31 44.5948 58.31ZM42.2998 56.075C42.3332 55.7317 42.4098 55.4217 42.5298 55.145C42.6498 54.8683 42.8082 54.6333 43.0048 54.44C43.2015 54.2467 43.4332 54.0983 43.6998 53.995C43.9665 53.8917 44.2648 53.84 44.5948 53.84C44.9548 53.84 45.2782 53.9017 45.5648 54.025C45.8548 54.145 46.1015 54.32 46.3048 54.55C46.5082 54.7767 46.6648 55.0517 46.7748 55.375C46.8848 55.695 46.9398 56.055 46.9398 56.455C46.9398 56.855 46.8832 57.2167 46.7698 57.54C46.6565 57.8633 46.4965 58.1383 46.2898 58.365C46.0865 58.5917 45.8398 58.7667 45.5498 58.89C45.2632 59.01 44.9448 59.07 44.5948 59.07C44.2548 59.07 43.9498 59.0183 43.6798 58.915C43.4098 58.8083 43.1765 58.6567 42.9798 58.46C42.7865 58.26 42.6315 58.02 42.5148 57.74C42.3982 57.4567 42.3265 57.1383 42.2998 56.785H41.1248V59H40.1498V53.92H41.1248V56.075H42.2998ZM56.3359 58.26V60.435C56.3359 60.5283 56.3093 60.6017 56.2559 60.655C56.2026 60.7083 56.1343 60.735 56.0509 60.735H55.4459V59H48.5209V53.92H49.4959V58.26H51.4709V53.92H52.4509V58.26H54.4209V53.92H55.4009V58.26H56.3359ZM62.1126 53.92V59H61.1326V55.68C61.1326 55.6133 61.1359 55.54 61.1426 55.46C61.1492 55.3767 61.1592 55.2933 61.1726 55.21C61.1392 55.28 61.1059 55.3467 61.0726 55.41C61.0426 55.47 61.0109 55.5233 60.9776 55.57L58.6426 58.755C58.6059 58.815 58.5576 58.8717 58.4976 58.925C58.4376 58.9783 58.3692 59.005 58.2926 59.005H57.7026V53.92H58.6776V57.245C58.6776 57.3117 58.6742 57.3867 58.6676 57.47C58.6609 57.55 58.6509 57.63 58.6376 57.71C58.7042 57.5633 58.7692 57.445 58.8326 57.355L61.1676 54.165C61.2042 54.1083 61.2526 54.0533 61.3126 54C61.3759 53.9467 61.4459 53.92 61.5226 53.92H62.1126ZM68.3841 53.92V59H67.4041V55.68C67.4041 55.6133 67.4074 55.54 67.4141 55.46C67.4207 55.3767 67.4307 55.2933 67.4441 55.21C67.4107 55.28 67.3774 55.3467 67.3441 55.41C67.3141 55.47 67.2824 55.5233 67.2491 55.57L64.9141 58.755C64.8774 58.815 64.8291 58.8717 64.7691 58.925C64.7091 58.9783 64.6407 59.005 64.5641 59.005H63.9741V53.92H64.9491V57.245C64.9491 57.3117 64.9457 57.3867 64.9391 57.47C64.9324 57.55 64.9224 57.63 64.9091 57.71C64.9757 57.5633 65.0407 57.445 65.1041 57.355L67.4391 54.165C67.4757 54.1083 67.5241 54.0533 67.5841 54C67.6474 53.9467 67.7174 53.92 67.7941 53.92H68.3841ZM66.2391 52.67C66.3724 52.67 66.4841 52.655 66.5741 52.625C66.6674 52.595 66.7407 52.5467 66.7941 52.48C66.8507 52.4133 66.8907 52.3267 66.9141 52.22C66.9407 52.11 66.9541 51.9767 66.9541 51.82H67.5291C67.5957 51.82 67.6474 51.85 67.6841 51.91C67.7207 51.97 67.7391 52.0367 67.7391 52.11C67.7391 52.2767 67.7041 52.4267 67.6341 52.56C67.5674 52.6933 67.4691 52.8083 67.3391 52.905C67.2091 52.9983 67.0507 53.0717 66.8641 53.125C66.6807 53.175 66.4724 53.2 66.2391 53.2C66.0057 53.2 65.7957 53.175 65.6091 53.125C65.4257 53.0717 65.2691 52.9983 65.1391 52.905C65.0091 52.8083 64.9091 52.6933 64.8391 52.56C64.7724 52.4267 64.7391 52.2767 64.7391 52.11C64.7391 52.0367 64.7574 51.97 64.7941 51.91C64.8307 51.85 64.8824 51.82 64.9491 51.82H65.5241C65.5241 51.9767 65.5357 52.11 65.5591 52.22C65.5857 52.3267 65.6257 52.4133 65.6791 52.48C65.7357 52.5467 65.8091 52.595 65.8991 52.625C65.9924 52.655 66.1057 52.67 66.2391 52.67ZM9.66 67.75C9.82 67.96 9.99167 68.1067 10.175 68.19C10.3617 68.2733 10.57 68.315 10.8 68.315C11.2467 68.315 11.5917 68.155 11.835 67.835C12.0817 67.5117 12.205 67.0417 12.205 66.425C12.205 66.1017 12.1767 65.8267 12.12 65.6C12.0667 65.37 11.9867 65.1833 11.88 65.04C11.7767 64.8933 11.6483 64.7867 11.495 64.72C11.3417 64.65 11.1683 64.615 10.975 64.615C10.6917 64.615 10.445 64.6783 10.235 64.805C10.0283 64.9317 9.83667 65.1117 9.66 65.345V67.75ZM9.61 64.68C9.71667 64.5533 9.83 64.4383 9.95 64.335C10.0733 64.2283 10.205 64.1383 10.345 64.065C10.485 63.9883 10.6333 63.93 10.79 63.89C10.95 63.8467 11.12 63.825 11.3 63.825C11.59 63.825 11.8517 63.8817 12.085 63.995C12.3217 64.1083 12.5233 64.275 12.69 64.495C12.8567 64.715 12.985 64.9867 13.075 65.31C13.1683 65.6333 13.215 66.005 13.215 66.425C13.215 66.8017 13.1633 67.1517 13.06 67.475C12.96 67.795 12.815 68.0733 12.625 68.31C12.4383 68.5467 12.2083 68.7333 11.935 68.87C11.665 69.0033 11.36 69.07 11.02 69.07C10.7167 69.07 10.4567 69.02 10.24 68.92C10.0233 68.82 9.83 68.68 9.66 68.5V70.705H8.685V63.92H9.27C9.40667 63.92 9.49167 63.985 9.525 64.115L9.61 64.68ZM19.2102 63.92V69H18.2302V65.68C18.2302 65.6133 18.2336 65.54 18.2402 65.46C18.2469 65.3767 18.2569 65.2933 18.2702 65.21C18.2369 65.28 18.2036 65.3467 18.1702 65.41C18.1402 65.47 18.1086 65.5233 18.0752 65.57L15.7402 68.755C15.7036 68.815 15.6552 68.8717 15.5952 68.925C15.5352 68.9783 15.4669 69.005 15.3902 69.005H14.8002V63.92H15.7752V67.245C15.7752 67.3117 15.7719 67.3867 15.7652 67.47C15.7586 67.55 15.7486 67.63 15.7352 67.71C15.8019 67.5633 15.8669 67.445 15.9302 67.355L18.2652 64.165C18.3019 64.1083 18.3502 64.0533 18.4102 64C18.4736 63.9467 18.5436 63.92 18.6202 63.92H19.2102ZM24.6317 64.87C24.6017 64.9067 24.5717 64.9367 24.5417 64.96C24.5151 64.98 24.4751 64.99 24.4217 64.99C24.3684 64.99 24.3117 64.97 24.2517 64.93C24.1951 64.8867 24.1217 64.8417 24.0317 64.795C23.9451 64.745 23.8384 64.7 23.7117 64.66C23.5884 64.6167 23.4351 64.595 23.2517 64.595C23.0117 64.595 22.8001 64.6383 22.6167 64.725C22.4334 64.8117 22.2801 64.935 22.1567 65.095C22.0367 65.255 21.9451 65.45 21.8817 65.68C21.8184 65.91 21.7867 66.1683 21.7867 66.455C21.7867 66.7517 21.8201 67.0167 21.8867 67.25C21.9534 67.48 22.0484 67.675 22.1717 67.835C22.2951 67.9917 22.4451 68.1117 22.6217 68.195C22.7984 68.275 22.9951 68.315 23.2117 68.315C23.4217 68.315 23.5951 68.29 23.7317 68.24C23.8684 68.1867 23.9817 68.13 24.0717 68.07C24.1617 68.01 24.2367 67.955 24.2967 67.905C24.3567 67.8517 24.4184 67.825 24.4817 67.825C24.5617 67.825 24.6234 67.855 24.6667 67.915L24.9467 68.275C24.8301 68.4183 24.6984 68.54 24.5517 68.64C24.4084 68.74 24.2551 68.8217 24.0917 68.885C23.9284 68.9483 23.7567 68.995 23.5767 69.025C23.4001 69.055 23.2201 69.07 23.0367 69.07C22.7201 69.07 22.4234 69.0117 22.1467 68.895C21.8734 68.7783 21.6351 68.6083 21.4317 68.385C21.2317 68.1617 21.0734 67.8883 20.9567 67.565C20.8401 67.2383 20.7817 66.8683 20.7817 66.455C20.7817 66.0783 20.8334 65.73 20.9367 65.41C21.0434 65.09 21.1984 64.815 21.4017 64.585C21.6084 64.3517 21.8617 64.17 22.1617 64.04C22.4617 63.9067 22.8051 63.84 23.1917 63.84C23.5551 63.84 23.8751 63.8983 24.1517 64.015C24.4284 64.1317 24.6751 64.2967 24.8917 64.51L24.6317 64.87ZM30.7969 63.92L27.9769 70.475C27.9469 70.5483 27.9069 70.605 27.8569 70.645C27.8069 70.685 27.7335 70.705 27.6369 70.705H26.9119L27.8419 68.68L25.7569 63.92H26.6069C26.6902 63.92 26.7552 63.94 26.8019 63.98C26.8485 64.02 26.8819 64.065 26.9019 64.115L28.1919 67.165C28.2185 67.2417 28.2435 67.32 28.2669 67.4C28.2935 67.4767 28.3152 67.5533 28.3319 67.63C28.3552 67.55 28.3802 67.4717 28.4069 67.395C28.4335 67.315 28.4619 67.2367 28.4919 67.16L29.7369 64.115C29.7602 64.0583 29.7969 64.0117 29.8469 63.975C29.8969 63.9383 29.9535 63.92 30.0169 63.92H30.7969ZM36.3224 63.92V69H35.3424V66.66H33.0174V69H32.0424V63.92H33.0174V65.92H35.3424V63.92H36.3224ZM40.352 63.84C40.7253 63.84 41.062 63.9017 41.362 64.025C41.6653 64.145 41.922 64.32 42.132 64.55C42.3453 64.7767 42.5086 65.0517 42.622 65.375C42.7353 65.695 42.792 66.055 42.792 66.455C42.792 66.855 42.7353 67.2167 42.622 67.54C42.5086 67.8633 42.3453 68.1383 42.132 68.365C41.922 68.5917 41.6653 68.7667 41.362 68.89C41.062 69.01 40.7253 69.07 40.352 69.07C39.9753 69.07 39.6353 69.01 39.332 68.89C39.032 68.7667 38.7753 68.5917 38.562 68.365C38.3486 68.1383 38.1836 67.8633 38.067 67.54C37.9536 67.2167 37.897 66.855 37.897 66.455C37.897 66.055 37.9536 65.695 38.067 65.375C38.1836 65.0517 38.3486 64.7767 38.562 64.55C38.7753 64.32 39.032 64.145 39.332 64.025C39.6353 63.9017 39.9753 63.84 40.352 63.84ZM40.352 68.31C40.832 68.31 41.1903 68.1483 41.427 67.825C41.6636 67.5017 41.782 67.0467 41.782 66.46C41.782 65.8733 41.6636 65.4183 41.427 65.095C41.1903 64.7683 40.832 64.605 40.352 64.605C39.8653 64.605 39.502 64.7683 39.262 65.095C39.0253 65.4183 38.907 65.8733 38.907 66.46C38.907 67.0467 39.0253 67.5017 39.262 67.825C39.502 68.1483 39.8653 68.31 40.352 68.31ZM47.4503 64.185C47.5003 64.1083 47.567 64.045 47.6503 63.995C47.7336 63.945 47.822 63.92 47.9153 63.92H48.6803L47.3953 65.84C47.3153 65.9667 47.232 66.07 47.1453 66.15C47.0586 66.23 46.952 66.2917 46.8253 66.335C46.9853 66.3817 47.1203 66.4517 47.2303 66.545C47.3403 66.635 47.4386 66.7533 47.5253 66.9L48.8203 69H48.1453C47.9686 69 47.832 68.9717 47.7353 68.915C47.642 68.855 47.562 68.77 47.4953 68.66L46.5653 67.125C46.4886 66.9983 46.392 66.9033 46.2753 66.84C46.162 66.7767 46.0303 66.745 45.8803 66.745H45.3553V69.005H44.3803V63.92H45.3553V66.09H45.8153C45.9553 66.09 46.0736 66.0617 46.1703 66.005C46.2703 65.9483 46.3553 65.865 46.4253 65.755L47.4503 64.185Z" fill="white"/>
</svg>
