<svg width="69" height="71" viewBox="0 0 69 71" fill="none" xmlns="http://www.w3.org/2000/svg">
<path d="M40.7249 37.8177L40.7469 37.8315L40.7673 37.8474C41.078 38.0899 41.7375 38.4256 42.635 38.7814C43.5166 39.1309 44.5823 39.4822 45.6692 39.7678C46.7576 40.0538 47.8543 40.2705 48.8006 40.3563C49.6269 40.4312 50.275 40.3996 50.7003 40.273C51.2031 38.502 51.7012 36.754 52.2434 35.011C52.2459 34.93 52.2457 34.8968 52.2443 34.8791C52.2421 34.8758 52.2392 34.8716 52.2353 34.8663C52.198 34.8159 52.133 34.7448 51.9914 34.5936L51.9737 34.5747C51.844 34.4364 51.671 34.2518 51.4453 33.9978C50.0659 32.6516 47.4775 30.8882 45.3735 30.1379C41.4466 28.7389 38.8219 29.018 37.4421 30.3936C36.7698 31.2507 36.4944 32.0112 36.4604 32.6816C36.4261 33.3578 36.6346 33.9972 37.0237 34.6115C37.8177 35.8651 39.3075 36.9307 40.7249 37.8177ZM45.5747 13.9435L45.5506 13.9338L45.5277 13.9216C44.051 13.1374 42.3832 12.38 40.9006 12.3192C40.174 12.2894 39.5159 12.4286 38.9473 12.7963C38.3836 13.161 37.8625 13.7798 37.4563 14.7906C36.9542 16.6733 38.026 19.0859 41.2007 21.7871C42.9019 23.2337 45.7231 24.5935 47.5792 25.1154C47.9137 25.1841 48.1609 25.2418 48.3459 25.285L48.3683 25.2902C48.5702 25.3373 48.6644 25.358 48.7268 25.3652C48.7334 25.3659 48.7386 25.3664 48.7425 25.3667C48.7584 25.3591 48.7872 25.3427 48.8556 25.3004C50.0947 23.9591 51.3589 22.6537 52.6413 21.3326C52.5384 20.9011 52.2418 20.3241 51.7638 19.646C51.2165 18.8694 50.4805 18.028 49.6887 17.2284C48.8979 16.4299 48.0609 15.6827 47.3174 15.094C46.5605 14.4946 45.94 14.0913 45.5747 13.9435ZM59.1649 36.8851C58.2064 36.1392 56.649 35.6017 54.406 35.6974C54.2025 36.6829 53.9716 37.6147 53.7193 38.6332C53.5587 39.2815 53.3894 39.965 53.2128 40.7198C55.484 41.7336 57.2122 41.8534 58.3875 41.5371C59.6106 41.2079 60.2558 40.4087 60.3951 39.5557C60.536 38.6931 60.1758 37.6717 59.1649 36.8851ZM52.7355 24.7634C51.9781 25.4927 51.2857 26.1595 50.5324 26.8295C51.5711 28.8198 52.8152 29.8998 53.9405 30.357C55.1272 30.8391 56.192 30.6403 56.8686 30.0871C57.5377 29.54 57.9072 28.5816 57.5807 27.3577C57.267 26.1818 56.2991 24.745 54.2854 23.2849C53.7214 23.814 53.2154 24.3012 52.7355 24.7634Z" stroke="white"/>
<path d="M6.94313 59H5.87813V52.655H2.40813V59H1.33813V51.82H6.94313V59ZM9.91781 57.75C10.0778 57.96 10.2495 58.1067 10.4328 58.19C10.6195 58.2733 10.8278 58.315 11.0578 58.315C11.5045 58.315 11.8495 58.155 12.0928 57.835C12.3395 57.5117 12.4628 57.0417 12.4628 56.425C12.4628 56.1017 12.4345 55.8267 12.3778 55.6C12.3245 55.37 12.2445 55.1833 12.1378 55.04C12.0345 54.8933 11.9061 54.7867 11.7528 54.72C11.5995 54.65 11.4261 54.615 11.2328 54.615C10.9495 54.615 10.7028 54.6783 10.4928 54.805C10.2861 54.9317 10.0945 55.1117 9.91781 55.345V57.75ZM9.86781 54.68C9.97448 54.5533 10.0878 54.4383 10.2078 54.335C10.3311 54.2283 10.4628 54.1383 10.6028 54.065C10.7428 53.9883 10.8911 53.93 11.0478 53.89C11.2078 53.8467 11.3778 53.825 11.5578 53.825C11.8478 53.825 12.1095 53.8817 12.3428 53.995C12.5795 54.1083 12.7811 54.275 12.9478 54.495C13.1145 54.715 13.2428 54.9867 13.3328 55.31C13.4261 55.6333 13.4728 56.005 13.4728 56.425C13.4728 56.8017 13.4211 57.1517 13.3178 57.475C13.2178 57.795 13.0728 58.0733 12.8828 58.31C12.6961 58.5467 12.4661 58.7333 12.1928 58.87C11.9228 59.0033 11.6178 59.07 11.2778 59.07C10.9745 59.07 10.7145 59.02 10.4978 58.92C10.2811 58.82 10.0878 58.68 9.91781 58.5V60.705H8.94281V53.92H9.52781C9.66448 53.92 9.74948 53.985 9.78281 54.115L9.86781 54.68ZM18.423 55.895C18.423 55.7017 18.3947 55.5233 18.338 55.36C18.2847 55.1967 18.2047 55.055 18.098 54.935C17.9914 54.815 17.8614 54.7217 17.708 54.655C17.5547 54.5883 17.378 54.555 17.178 54.555C16.768 54.555 16.4447 54.6733 16.208 54.91C15.9747 55.1467 15.8264 55.475 15.763 55.895H18.423ZM19.228 58.275C19.108 58.415 18.9697 58.5367 18.813 58.64C18.6564 58.74 18.4897 58.8217 18.313 58.885C18.1364 58.9483 17.953 58.995 17.763 59.025C17.5764 59.055 17.3914 59.07 17.208 59.07C16.858 59.07 16.533 59.0117 16.233 58.895C15.9364 58.775 15.678 58.6017 15.458 58.375C15.2414 58.145 15.0714 57.8617 14.948 57.525C14.828 57.185 14.768 56.795 14.768 56.355C14.768 56.0017 14.823 55.6733 14.933 55.37C15.043 55.0633 15.1997 54.7967 15.403 54.57C15.6097 54.3433 15.8614 54.165 16.158 54.035C16.4547 53.905 16.788 53.84 17.158 53.84C17.468 53.84 17.753 53.8917 18.013 53.995C18.2764 54.095 18.503 54.2417 18.693 54.435C18.883 54.6283 19.0314 54.8667 19.138 55.15C19.248 55.4333 19.303 55.7567 19.303 56.12C19.303 56.27 19.2864 56.3717 19.253 56.425C19.2197 56.475 19.158 56.5 19.068 56.5H15.738C15.748 56.8033 15.7914 57.0683 15.868 57.295C15.9447 57.5183 16.0497 57.705 16.183 57.855C16.3197 58.005 16.4814 58.1167 16.668 58.19C16.8547 58.2633 17.063 58.3 17.293 58.3C17.5097 58.3 17.6964 58.275 17.853 58.225C18.013 58.175 18.1497 58.1217 18.263 58.065C18.3797 58.005 18.4764 57.95 18.553 57.9C18.633 57.85 18.703 57.825 18.763 57.825C18.843 57.825 18.9047 57.855 18.948 57.915L19.228 58.275ZM24.282 58.29V54.685H22.762C22.7286 55.1783 22.6836 55.6183 22.627 56.005C22.5703 56.3917 22.5036 56.7317 22.427 57.025C22.3536 57.315 22.272 57.565 22.182 57.775C22.092 57.9817 21.997 58.1533 21.897 58.29H24.282ZM26.157 58.26V60.435C26.157 60.5283 26.1303 60.6017 26.077 60.655C26.027 60.7083 25.9603 60.735 25.877 60.735H25.272V59H21.122V60.455C21.122 60.5283 21.1003 60.5933 21.057 60.65C21.0136 60.7067 20.9453 60.735 20.852 60.735H20.232V58.29H20.397C20.5136 58.29 20.6286 58.2717 20.742 58.235C20.8553 58.1983 20.9636 58.125 21.067 58.015C21.1736 57.905 21.2736 57.75 21.367 57.55C21.4603 57.35 21.5453 57.0883 21.622 56.765C21.6986 56.4417 21.7653 56.0483 21.822 55.585C21.8786 55.1183 21.9236 54.5633 21.957 53.92H25.227V58.26H26.157ZM29.5127 58.285C29.846 58.285 30.096 58.205 30.2627 58.045C30.4293 57.8817 30.5127 57.675 30.5127 57.425C30.5127 57.3117 30.4943 57.205 30.4577 57.105C30.421 57.0017 30.3627 56.9133 30.2827 56.84C30.2027 56.7633 30.0977 56.7033 29.9677 56.66C29.841 56.6133 29.6843 56.59 29.4977 56.59H28.4627V58.285H29.5127ZM29.4977 55.88C29.8477 55.88 30.1427 55.9233 30.3827 56.01C30.626 56.0933 30.821 56.2067 30.9677 56.35C31.1143 56.49 31.2193 56.6533 31.2827 56.84C31.3493 57.0233 31.3827 57.215 31.3827 57.415C31.3827 57.645 31.341 57.8583 31.2577 58.055C31.1777 58.2483 31.0577 58.415 30.8977 58.555C30.7377 58.695 30.541 58.805 30.3077 58.885C30.0777 58.9617 29.8127 59 29.5127 59H27.5327V53.92H28.4627V55.88H29.4977ZM33.4277 53.92V59H32.4527V53.92H33.4277ZM38.7683 58.29V54.685H37.2483C37.2149 55.1783 37.1699 55.6183 37.1133 56.005C37.0566 56.3917 36.9899 56.7317 36.9133 57.025C36.8399 57.315 36.7583 57.565 36.6683 57.775C36.5783 57.9817 36.4833 58.1533 36.3833 58.29H38.7683ZM40.6433 58.26V60.435C40.6433 60.5283 40.6166 60.6017 40.5633 60.655C40.5133 60.7083 40.4466 60.735 40.3633 60.735H39.7583V59H35.6083V60.455C35.6083 60.5283 35.5866 60.5933 35.5433 60.65C35.4999 60.7067 35.4316 60.735 35.3383 60.735H34.7183V58.29H34.8833C34.9999 58.29 35.1149 58.2717 35.2283 58.235C35.3416 58.1983 35.4499 58.125 35.5533 58.015C35.6599 57.905 35.7599 57.75 35.8533 57.55C35.9466 57.35 36.0316 57.0883 36.1083 56.765C36.1849 56.4417 36.2516 56.0483 36.3083 55.585C36.3649 55.1183 36.4099 54.5633 36.4433 53.92H39.7133V58.26H40.6433ZM46.2148 53.92L43.3948 60.475C43.3648 60.5483 43.3248 60.605 43.2748 60.645C43.2248 60.685 43.1515 60.705 43.0548 60.705H42.3298L43.2598 58.68L41.1748 53.92H42.0248C42.1082 53.92 42.1732 53.94 42.2198 53.98C42.2665 54.02 42.2998 54.065 42.3198 54.115L43.6098 57.165C43.6365 57.2417 43.6615 57.32 43.6848 57.4C43.7115 57.4767 43.7332 57.5533 43.7498 57.63C43.7732 57.55 43.7982 57.4717 43.8248 57.395C43.8515 57.315 43.8798 57.2367 43.9098 57.16L45.1548 54.115C45.1782 54.0583 45.2148 54.0117 45.2648 53.975C45.3148 53.9383 45.3715 53.92 45.4348 53.92H46.2148ZM55.2754 58.26V60.435C55.2754 60.5283 55.2487 60.6017 55.1954 60.655C55.1421 60.7083 55.0737 60.735 54.9904 60.735H54.3854V59H47.4604V53.92H48.4354V58.26H50.4104V53.92H51.3904V58.26H53.3604V53.92H54.3404V58.26H55.2754ZM61.052 53.92V59H60.072V55.68C60.072 55.6133 60.0754 55.54 60.082 55.46C60.0887 55.3767 60.0987 55.2933 60.112 55.21C60.0787 55.28 60.0454 55.3467 60.012 55.41C59.982 55.47 59.9504 55.5233 59.917 55.57L57.582 58.755C57.5454 58.815 57.497 58.8717 57.437 58.925C57.377 58.9783 57.3087 59.005 57.232 59.005H56.642V53.92H57.617V57.245C57.617 57.3117 57.6137 57.3867 57.607 57.47C57.6004 57.55 57.5904 57.63 57.577 57.71C57.6437 57.5633 57.7087 57.445 57.772 57.355L60.107 54.165C60.1437 54.1083 60.192 54.0533 60.252 54C60.3154 53.9467 60.3854 53.92 60.462 53.92H61.052ZM67.3235 53.92V59H66.3435V55.68C66.3435 55.6133 66.3468 55.54 66.3535 55.46C66.3602 55.3767 66.3702 55.2933 66.3835 55.21C66.3502 55.28 66.3168 55.3467 66.2835 55.41C66.2535 55.47 66.2218 55.5233 66.1885 55.57L63.8535 58.755C63.8168 58.815 63.7685 58.8717 63.7085 58.925C63.6485 58.9783 63.5802 59.005 63.5035 59.005H62.9135V53.92H63.8885V57.245C63.8885 57.3117 63.8852 57.3867 63.8785 57.47C63.8718 57.55 63.8618 57.63 63.8485 57.71C63.9152 57.5633 63.9802 57.445 64.0435 57.355L66.3785 54.165C66.4152 54.1083 66.4635 54.0533 66.5235 54C66.5868 53.9467 66.6568 53.92 66.7335 53.92H67.3235ZM65.1785 52.67C65.3118 52.67 65.4235 52.655 65.5135 52.625C65.6068 52.595 65.6802 52.5467 65.7335 52.48C65.7902 52.4133 65.8302 52.3267 65.8535 52.22C65.8802 52.11 65.8935 51.9767 65.8935 51.82H66.4685C66.5352 51.82 66.5868 51.85 66.6235 51.91C66.6602 51.97 66.6785 52.0367 66.6785 52.11C66.6785 52.2767 66.6435 52.4267 66.5735 52.56C66.5068 52.6933 66.4085 52.8083 66.2785 52.905C66.1485 52.9983 65.9902 53.0717 65.8035 53.125C65.6202 53.175 65.4118 53.2 65.1785 53.2C64.9452 53.2 64.7352 53.175 64.5485 53.125C64.3652 53.0717 64.2085 52.9983 64.0785 52.905C63.9485 52.8083 63.8485 52.6933 63.7785 52.56C63.7118 52.4267 63.6785 52.2767 63.6785 52.11C63.6785 52.0367 63.6968 51.97 63.7335 51.91C63.7702 51.85 63.8218 51.82 63.8885 51.82H64.4635C64.4635 51.9767 64.4752 52.11 64.4985 52.22C64.5252 52.3267 64.5652 52.4133 64.6185 52.48C64.6752 52.5467 64.7485 52.595 64.8385 52.625C64.9318 52.655 65.0452 52.67 65.1785 52.67ZM28.7205 67.75C28.8805 67.96 29.0522 68.1067 29.2355 68.19C29.4222 68.2733 29.6305 68.315 29.8605 68.315C30.3072 68.315 30.6522 68.155 30.8955 67.835C31.1422 67.5117 31.2655 67.0417 31.2655 66.425C31.2655 66.1017 31.2372 65.8267 31.1805 65.6C31.1272 65.37 31.0472 65.1833 30.9405 65.04C30.8372 64.8933 30.7089 64.7867 30.5555 64.72C30.4022 64.65 30.2289 64.615 30.0355 64.615C29.7522 64.615 29.5055 64.6783 29.2955 64.805C29.0889 64.9317 28.8972 65.1117 28.7205 65.345V67.75ZM28.6705 64.68C28.7772 64.5533 28.8905 64.4383 29.0105 64.335C29.1339 64.2283 29.2655 64.1383 29.4055 64.065C29.5455 63.9883 29.6939 63.93 29.8505 63.89C30.0105 63.8467 30.1805 63.825 30.3605 63.825C30.6505 63.825 30.9122 63.8817 31.1455 63.995C31.3822 64.1083 31.5839 64.275 31.7505 64.495C31.9172 64.715 32.0455 64.9867 32.1355 65.31C32.2289 65.6333 32.2755 66.005 32.2755 66.425C32.2755 66.8017 32.2239 67.1517 32.1205 67.475C32.0205 67.795 31.8755 68.0733 31.6855 68.31C31.4989 68.5467 31.2689 68.7333 30.9955 68.87C30.7255 69.0033 30.4205 69.07 30.0805 69.07C29.7772 69.07 29.5172 69.02 29.3005 68.92C29.0839 68.82 28.8905 68.68 28.7205 68.5V70.705H27.7455V63.92H28.3305C28.4672 63.92 28.5522 63.985 28.5855 64.115L28.6705 64.68ZM38.2708 63.92V69H37.2908V65.68C37.2908 65.6133 37.2941 65.54 37.3008 65.46C37.3074 65.3767 37.3174 65.2933 37.3308 65.21C37.2974 65.28 37.2641 65.3467 37.2308 65.41C37.2008 65.47 37.1691 65.5233 37.1358 65.57L34.8008 68.755C34.7641 68.815 34.7158 68.8717 34.6558 68.925C34.5958 68.9783 34.5274 69.005 34.4508 69.005H33.8608V63.92H34.8358V67.245C34.8358 67.3117 34.8324 67.3867 34.8258 67.47C34.8191 67.55 34.8091 67.63 34.7958 67.71C34.8624 67.5633 34.9274 67.445 34.9908 67.355L37.3258 64.165C37.3624 64.1083 37.4108 64.0533 37.4708 64C37.5341 63.9467 37.6041 63.92 37.6808 63.92H38.2708ZM43.6923 64.87C43.6623 64.9067 43.6323 64.9367 43.6023 64.96C43.5756 64.98 43.5356 64.99 43.4823 64.99C43.4289 64.99 43.3723 64.97 43.3123 64.93C43.2556 64.8867 43.1823 64.8417 43.0923 64.795C43.0056 64.745 42.8989 64.7 42.7723 64.66C42.6489 64.6167 42.4956 64.595 42.3123 64.595C42.0723 64.595 41.8606 64.6383 41.6773 64.725C41.4939 64.8117 41.3406 64.935 41.2173 65.095C41.0973 65.255 41.0056 65.45 40.9423 65.68C40.8789 65.91 40.8473 66.1683 40.8473 66.455C40.8473 66.7517 40.8806 67.0167 40.9473 67.25C41.0139 67.48 41.1089 67.675 41.2323 67.835C41.3556 67.9917 41.5056 68.1117 41.6823 68.195C41.8589 68.275 42.0556 68.315 42.2723 68.315C42.4823 68.315 42.6556 68.29 42.7923 68.24C42.9289 68.1867 43.0423 68.13 43.1323 68.07C43.2223 68.01 43.2973 67.955 43.3573 67.905C43.4173 67.8517 43.4789 67.825 43.5423 67.825C43.6223 67.825 43.6839 67.855 43.7273 67.915L44.0073 68.275C43.8906 68.4183 43.7589 68.54 43.6123 68.64C43.4689 68.74 43.3156 68.8217 43.1523 68.885C42.9889 68.9483 42.8173 68.995 42.6373 69.025C42.4606 69.055 42.2806 69.07 42.0973 69.07C41.7806 69.07 41.4839 69.0117 41.2073 68.895C40.9339 68.7783 40.6956 68.6083 40.4923 68.385C40.2923 68.1617 40.1339 67.8883 40.0173 67.565C39.9006 67.2383 39.8423 66.8683 39.8423 66.455C39.8423 66.0783 39.8939 65.73 39.9973 65.41C40.1039 65.09 40.2589 64.815 40.4623 64.585C40.6689 64.3517 40.9223 64.17 41.2223 64.04C41.5223 63.9067 41.8656 63.84 42.2523 63.84C42.6156 63.84 42.9356 63.8983 43.2123 64.015C43.4889 64.1317 43.7356 64.2967 43.9523 64.51L43.6923 64.87ZM49.8574 63.92L47.0374 70.475C47.0074 70.5483 46.9674 70.605 46.9174 70.645C46.8674 70.685 46.7941 70.705 46.6974 70.705H45.9724L46.9024 68.68L44.8174 63.92H45.6674C45.7508 63.92 45.8158 63.94 45.8624 63.98C45.9091 64.02 45.9424 64.065 45.9624 64.115L47.2524 67.165C47.2791 67.2417 47.3041 67.32 47.3274 67.4C47.3541 67.4767 47.3758 67.5533 47.3924 67.63C47.4158 67.55 47.4408 67.4717 47.4674 67.395C47.4941 67.315 47.5224 67.2367 47.5524 67.16L48.7974 64.115C48.8208 64.0583 48.8574 64.0117 48.9074 63.975C48.9574 63.9383 49.0141 63.92 49.0774 63.92H49.8574ZM55.383 63.92V69H54.403V66.66H52.078V69H51.103V63.92H52.078V65.92H54.403V63.92H55.383ZM59.4125 63.84C59.7858 63.84 60.1225 63.9017 60.4225 64.025C60.7258 64.145 60.9825 64.32 61.1925 64.55C61.4058 64.7767 61.5692 65.0517 61.6825 65.375C61.7958 65.695 61.8525 66.055 61.8525 66.455C61.8525 66.855 61.7958 67.2167 61.6825 67.54C61.5692 67.8633 61.4058 68.1383 61.1925 68.365C60.9825 68.5917 60.7258 68.7667 60.4225 68.89C60.1225 69.01 59.7858 69.07 59.4125 69.07C59.0358 69.07 58.6958 69.01 58.3925 68.89C58.0925 68.7667 57.8358 68.5917 57.6225 68.365C57.4092 68.1383 57.2442 67.8633 57.1275 67.54C57.0142 67.2167 56.9575 66.855 56.9575 66.455C56.9575 66.055 57.0142 65.695 57.1275 65.375C57.2442 65.0517 57.4092 64.7767 57.6225 64.55C57.8358 64.32 58.0925 64.145 58.3925 64.025C58.6958 63.9017 59.0358 63.84 59.4125 63.84ZM59.4125 68.31C59.8925 68.31 60.2508 68.1483 60.4875 67.825C60.7242 67.5017 60.8425 67.0467 60.8425 66.46C60.8425 65.8733 60.7242 65.4183 60.4875 65.095C60.2508 64.7683 59.8925 64.605 59.4125 64.605C58.9258 64.605 58.5625 64.7683 58.3225 65.095C58.0858 65.4183 57.9675 65.8733 57.9675 66.46C57.9675 67.0467 58.0858 67.5017 58.3225 67.825C58.5625 68.1483 58.9258 68.31 59.4125 68.31ZM66.5109 64.185C66.5609 64.1083 66.6275 64.045 66.7109 63.995C66.7942 63.945 66.8825 63.92 66.9759 63.92H67.7409L66.4559 65.84C66.3759 65.9667 66.2925 66.07 66.2059 66.15C66.1192 66.23 66.0125 66.2917 65.8859 66.335C66.0459 66.3817 66.1809 66.4517 66.2909 66.545C66.4009 66.635 66.4992 66.7533 66.5859 66.9L67.8809 69H67.2059C67.0292 69 66.8925 68.9717 66.7959 68.915C66.7025 68.855 66.6225 68.77 66.5559 68.66L65.6259 67.125C65.5492 66.9983 65.4525 66.9033 65.3359 66.84C65.2225 66.7767 65.0909 66.745 64.9409 66.745H64.4159V69.005H63.4409V63.92H64.4159V66.09H64.8759C65.0159 66.09 65.1342 66.0617 65.2309 66.005C65.3309 65.9483 65.4159 65.865 65.4859 65.755L66.5109 64.185Z" fill="white"/>
</svg>
